<svg xmlns:dc="http://purl.org/dc/elements/1.1/" xmlns:cc="http://creativecommons.org/ns#" xmlns:rdf="http://www.w3.org/1999/02/22-rdf-syntax-ns#" xmlns:svg="http://www.w3.org/2000/svg" xmlns="http://www.w3.org/2000/svg" xmlns:sodipodi="http://sodipodi.sourceforge.net/DTD/sodipodi-0.dtd" xmlns:inkscape="http://www.inkscape.org/namespaces/inkscape" width="102.29111mm" height="102.82729mm" viewBox="0 0 102.29111 102.8273" id="svg1872" inkscape:version="0.92.3 (2405546, 2018-03-11)" sodipodi:docname="profitability-icon.svg"><defs id="defs1866"></defs><metadata id="metadata1869"></metadata><g inkscape:label="Layer 1" inkscape:groupmode="layer" id="layer1" transform="translate(248.52844,126.22331)"><g id="g2442" transform="matrix(1.2434518,0,0,1.2434272,53.403325,5.9472709)" style="stroke-width:0.80422086"><path inkscape:export-ydpi="96" inkscape:export-xdpi="96" d="m -220.22604,-24.572389 v -33.03411 c 0,-0.536223 -0.43144,-0.973666 -0.96908,-0.973666 -2.71638,-0.0071 -10.47044,-0.02822 -14.51292,-0.03881 -0.88583,0 -1.30598,-1.086556 -0.65581,-1.689806 l 37.08117,-34.325274 c 0.37359,-0.345722 0.95074,-0.345722 1.32468,0 l 37.08894,34.332333 c 0.64982,0.60325 0.22931,1.689807 -0.65652,1.689807 -4.01955,0.0141 -11.79971,0.02822 -14.52104,0.03175 -0.53798,0 -0.96802,0.437443 -0.96802,0.977193 v 33.030583 c 0,0.53975 -0.43674,0.973667 -0.97543,0.973667 h -41.26053 c -0.5387,0 -0.97544,-0.433917 -0.97544,-0.973667" style="fill:#d1e2f5;fill-opacity:1;fill-rule:nonzero;stroke:none;stroke-width:0.02837113" id="path120" inkscape:connector-curvature="0"></path><path inkscape:export-ydpi="96" inkscape:export-xdpi="96" d="m -183.03973,-63.386764 c 0,8.607777 -6.97583,15.582194 -15.58043,15.582194 -8.60531,0 -15.58078,-6.974417 -15.58078,-15.582194 0,-8.60425 6.97547,-15.578666 15.58078,-15.578666 8.6046,0 15.58043,6.974416 15.58043,15.578666" style="fill:#4685cb;fill-opacity:1;fill-rule:nonzero;stroke:none;stroke-width:0.02837113" id="path122" inkscape:connector-curvature="0"></path><path inkscape:export-ydpi="96" inkscape:export-xdpi="96" d="m -224.991,-34.613821 v -33.17522 c 0,-0.497417 -0.40005,-0.899584 -0.89818,-0.903113 -2.68957,-0.0071 -10.74032,-0.02822 -14.76304,-0.03528 -0.82127,-0.0035 -1.2125,-1.012473 -0.6096,-1.56986 l 37.26215,-34.491076 c 0.34643,-0.32103 0.88159,-0.32103 1.22802,0 l 37.26991,34.498133 c 0.60255,0.557389 0.21273,1.566333 -0.60819,1.569862 -3.99591,0.01058 -12.07593,0.02469 -14.77151,0.02822 -0.49882,0.0035 -0.89852,0.405696 -0.89852,0.90664 v 33.171693 c 0,0.500944 -0.40464,0.90664 -0.90417,0.90664 h -41.40306 c -0.49918,0 -0.90381,-0.405696 -0.90381,-0.906639 z" style="fill:none;stroke:#1a3657;stroke-width:2.54465175;stroke-linecap:round;stroke-linejoin:round;stroke-miterlimit:10;stroke-dasharray:none;stroke-opacity:1" id="path124" inkscape:connector-curvature="0"></path><path inkscape:export-ydpi="96" inkscape:export-xdpi="96" d="m -198.97188,-74.74268 c 0,-1.11125 -0.15452,-4.501444 -4.07529,-4.536723 -3.10303,0 -4.07564,1.852083 -4.07564,3.425473 0,1.57339 0.9264,2.87161 4.21463,4.169833 3.28825,1.294694 4.07529,2.12725 4.07529,3.933473 0,1.806221 -1.85243,3.429 -4.44605,3.429 -2.59327,0 -4.76991,-0.973666 -4.76991,-4.353279" style="fill:none;stroke:#1a3657;stroke-width:2.54465175;stroke-linecap:round;stroke-linejoin:round;stroke-miterlimit:10;stroke-dasharray:none;stroke-opacity:1" id="path126" inkscape:connector-curvature="0"></path><path inkscape:export-ydpi="96" inkscape:export-xdpi="96" d="m -203.44969,-79.279403 v -2.335388" style="fill:none;stroke:#1a3657;stroke-width:2.54465175;stroke-linecap:round;stroke-linejoin:round;stroke-miterlimit:10;stroke-dasharray:none;stroke-opacity:1" id="path128" inkscape:connector-curvature="0"></path><path inkscape:export-ydpi="96" inkscape:export-xdpi="96" d="m -203.11138,-61.813374 v -2.33539" style="fill:none;stroke:#1a3657;stroke-width:2.54465175;stroke-linecap:round;stroke-linejoin:round;stroke-miterlimit:10;stroke-dasharray:none;stroke-opacity:1" id="path130" inkscape:connector-curvature="0"></path><path inkscape:export-ydpi="96" inkscape:export-xdpi="96" d="m -187.80505,-71.634707 c 0,8.60425 -6.97548,15.582193 -15.58043,15.582193 -8.60496,0 -15.58079,-6.977943 -15.58079,-15.582193 0,-8.604251 6.97583,-15.578667 15.58079,-15.578667 8.60495,0 15.58043,6.974416 15.58043,15.578667 z" style="fill:none;stroke:#1a3657;stroke-width:2.54465175;stroke-linecap:round;stroke-linejoin:round;stroke-miterlimit:10;stroke-dasharray:none;stroke-opacity:1" id="path132" inkscape:connector-curvature="0"></path></g></g></svg>