<svg xmlns:dc="http://purl.org/dc/elements/1.1/" xmlns:cc="http://creativecommons.org/ns#" xmlns:rdf="http://www.w3.org/1999/02/22-rdf-syntax-ns#" xmlns:svg="http://www.w3.org/2000/svg" xmlns="http://www.w3.org/2000/svg" xmlns:sodipodi="http://sodipodi.sourceforge.net/DTD/sodipodi-0.dtd" xmlns:inkscape="http://www.inkscape.org/namespaces/inkscape" width="100mm" height="100mm" viewBox="0 0 100 100" id="svg2484" inkscape:version="0.92.3 (2405546, 2018-03-11)" sodipodi:docname="cicd-icon.svg"><defs id="defs2478"></defs><metadata id="metadata2481"></metadata><g inkscape:label="Layer 1" inkscape:groupmode="layer" id="layer1" transform="translate(0,-197)"><g id="g3054" transform="matrix(1.1018698,0,0,1.0672879,127.39751,288.17731)" style="stroke-width:0.92213398"><path d="m -32.167839,5.9391834 h -64.486717 c -3.494974,0 -6.328484,-2.833159 -6.328484,-6.32812704 V -64.876016 c 0,-3.494969 2.83351,-6.328128 6.328484,-6.328128 h 64.486717 c 3.494971,0 6.328127,2.833159 6.328127,6.328128 v 64.48707236 c 0,3.49496804 -2.833156,6.32812704 -6.328127,6.32812704" style="fill:#d1e2f5;fill-opacity:1;fill-rule:nonzero;stroke:none;stroke-width:0.03253084" id="path106" inkscape:connector-curvature="0"></path><path d="m -42.370172,-4.4998646 h -64.486718 c -3.49497,0 -6.32848,-2.833159 -6.32848,-6.3277754 v -64.486717 c 0,-3.495322 2.83351,-6.328481 6.32848,-6.328481 h 64.486718 c 3.494971,0 6.328129,2.833159 6.328129,6.328481 v 64.486717 c 0,3.4946164 -2.833158,6.3277754 -6.328129,6.3277754 z" style="fill:none;stroke:#1a3657;stroke-width:2.91774273;stroke-linecap:butt;stroke-linejoin:miter;stroke-miterlimit:10;stroke-dasharray:none;stroke-opacity:1" id="path108" inkscape:connector-curvature="0"></path><path d="m -42.472124,-32.63248 c 0,-12.116506 -9.822744,-21.93925 -21.93925,-21.93925 -12.116504,0 -21.938896,9.822744 -21.938896,21.93925 0,12.116504 9.822392,21.939248 21.938896,21.939248 12.116506,0 21.93925,-9.822744 21.93925,-21.939248" style="fill:#4685cb;fill-opacity:1;fill-rule:nonzero;stroke:none;stroke-width:0.03253084" id="path110" inkscape:connector-curvature="0"></path><path d="m -66.996528,-27.319649 -3.734155,7.50288 7.335309,3.650543" style="fill:none;stroke:#1a3657;stroke-width:2.91774273;stroke-linecap:round;stroke-linejoin:round;stroke-miterlimit:10;stroke-dasharray:none;stroke-opacity:1" id="path112" inkscape:connector-curvature="0"></path><path d="m -80.186891,-56.118661 3.917598,-7.408686 -7.243233,-3.829755" style="fill:none;stroke:#1a3657;stroke-width:2.91774273;stroke-linecap:round;stroke-linejoin:round;stroke-miterlimit:10;stroke-dasharray:none;stroke-opacity:1" id="path114" inkscape:connector-curvature="0"></path><path d="m -69.955983,-20.333236 c 10.205157,-1.737431 17.976144,-10.616848 17.976144,-21.31695 0,-10.69975 -7.770987,-19.579519 -17.976144,-21.316597" style="fill:none;stroke:#1a3657;stroke-width:2.91774273;stroke-linecap:round;stroke-linejoin:miter;stroke-miterlimit:10;stroke-dasharray:none;stroke-opacity:1" id="path116" inkscape:connector-curvature="0"></path><path d="m -77.263774,-62.966783 c -10.205154,1.737078 -17.976496,10.616847 -17.976496,21.316597 0,10.700102 7.771342,19.579519 17.976496,21.31695" style="fill:none;stroke:#1a3657;stroke-width:2.91774273;stroke-linecap:round;stroke-linejoin:miter;stroke-miterlimit:10;stroke-dasharray:none;stroke-opacity:1" id="path118" inkscape:connector-curvature="0"></path></g></g></svg>