<svg xmlns="http://www.w3.org/2000/svg" width="102.907" height="102.645" viewBox="0 0 102.907 102.645"><g id="Gruppe_29" data-name="Gruppe 29" transform="translate(-83.931 -987.831)"><rect id="Rechteck_38" data-name="Rechteck 38" width="82.645" height="82.645" rx="7.344" transform="translate(104.193 1007.831)" fill="#cedbef"></rect><rect id="Rechteck_39" data-name="Rechteck 39" width="31.358" height="31.358" rx="3.354" transform="translate(129.705 1033.605)" fill="#4890ca"></rect><rect id="Rechteck_40" data-name="Rechteck 40" width="31.358" height="31.358" rx="3.354" transform="translate(117.642 1021.542)" fill="none" stroke="#0b3558" stroke-miterlimit="10" stroke-width="4"></rect><path id="Pfad_53" data-name="Pfad 53" d="M108.372,1040.4l-7.612,7.612,7.441,7.441" transform="translate(-3.139 -10.704)" fill="none" stroke="#0b3558" stroke-linecap="round" stroke-linejoin="round" stroke-width="4"></path><path id="Pfad_54" data-name="Pfad 54" d="M93.542,1040.4l-7.612,7.612,7.441,7.441" transform="translate(0 -10.704)" fill="none" stroke="#0b3558" stroke-linecap="round" stroke-linejoin="round" stroke-width="4"></path><path id="Pfad_55" data-name="Pfad 55" d="M181.675,1055.451l7.612-7.612-7.441-7.441" transform="translate(-20.266 -10.704)" fill="none" stroke="#0b3558" stroke-linecap="round" stroke-linejoin="round" stroke-width="4"></path><path id="Pfad_56" data-name="Pfad 56" d="M196.5,1055.451l7.612-7.612-7.441-7.441" transform="translate(-23.405 -10.704)" fill="none" stroke="#0b3558" stroke-linecap="round" stroke-linejoin="round" stroke-width="4"></path><path id="Pfad_57" data-name="Pfad 57" d="M136.5,1085.575l7.612,7.612,7.441-7.441" transform="translate(-10.704 -20.266)" fill="none" stroke="#0b3558" stroke-linecap="round" stroke-linejoin="round" stroke-width="4"></path><path id="Pfad_58" data-name="Pfad 58" d="M136.5,1100.4l7.612,7.612,7.441-7.442" transform="translate(-10.704 -23.405)" fill="none" stroke="#0b3558" stroke-linecap="round" stroke-linejoin="round" stroke-width="4"></path><path id="Pfad_59" data-name="Pfad 59" d="M151.551,1012.272l-7.612-7.611L136.5,1012.1" transform="translate(-10.704 -3.139)" fill="none" stroke="#0b3558" stroke-linecap="round" stroke-linejoin="round" stroke-width="4"></path><path id="Pfad_60" data-name="Pfad 60" d="M151.551,997.442l-7.612-7.612-7.441,7.442" transform="translate(-10.704 0)" fill="none" stroke="#0b3558" stroke-linecap="round" stroke-linejoin="round" stroke-width="4"></path></g></svg>